# xmcd
#
# Track frame offsets:
#	150
#	19482
#	32885
#	52425
#	72842
#	98332
#	119655
#	141230
#	160945
#	186922
#	211102
#
# Disc length: 2970 seconds
#
# Revision: 1
# Processed by: cddbd v1.5.1PL0 Copyright (c) Steve Scherf et al.
# Submitted via: CDex 1.50Beta5
#
DISCID=a40b980b
DTITLE=さまざまなアーティスト - style and wave vol.1
DYEAR=1900
DGENRE=Pop
TTITLE0=GAZELLE/WHY
TTITLE1=GAZELLE/PARAZONE
TTITLE2=PRISMA'TICA/YOU ON MY MIND
TTITLE3=PRISMA'TICA/RIO
TTITLE4=SONYA/NEVER KNEW LOVE LIKE THIS BEFORE
TTITLE5=SONYA/LOVE ON A TWO WAY STREET
TTITLE6=MASTERS OF FUNK/PSYCOTIC PHUNK
TTITLE7=HEAD QUATERS/SUMMER TIME
TTITLE8=melange/LOVE WILL CONQUER ALL
TTITLE9=melange/COME BACK TO ME
TTITLE10=GAZELLE/FEAR
EXTD=
EXTT0=
EXTT1=
EXTT2=
EXTT3=
EXTT4=
EXTT5=
EXTT6=
EXTT7=
EXTT8=
EXTT9=
EXTT10=
PLAYORDER=
